HIERARCHY
ROOT hip
{
  OFFSET 0 0 0
  CHANNELS 6 Xposition Yposition Zposition Zrotation Yrotation Xrotation
  JOINT abdomen
  {
    OFFSET 0 20.6881 -0.73152
    CHANNELS 3 Zrotation Xrotation Yrotation
    JOINT chest
    {
      OFFSET 0 11.7043 -0.48768
      CHANNELS 3 Zrotation Xrotation Yrotation
      JOINT neck
      {
        OFFSET 0 22.1894 -2.19456
        CHANNELS 3 Zrotation Xrotation Yrotation
        JOINT head
        {
          OFFSET -0.24384 7.07133 1.2192
          CHANNELS 3 Zrotation Xrotation Yrotation
          JOINT leftEye
          {
            OFFSET 4.14528 8.04674 8.04672
            CHANNELS 3 Zrotation Xrotation Yrotation
            End Site
            {
              OFFSET 1 0 0
            }
          }
          JOINT rightEye
          {
            OFFSET -3.6576 8.04674 8.04672
            CHANNELS 3 Zrotation Xrotation Yrotation
            End Site
            {
              OFFSET 1 0 0
            }
          }
        }
      }
      JOINT rCollar
      {
        OFFSET -2.68224 19.2634 -4.8768
        CHANNELS 3 Zrotation Xrotation Yrotation
        JOINT rShldr
        {
          OFFSET -8.77824 -1.95073 1.46304
          CHANNELS 3 Zrotation Xrotation Yrotation
          JOINT rForeArm
          {
            OFFSET -28.1742 -1.7115 0.48768
            CHANNELS 3 Zrotation Xrotation Yrotation
            JOINT rHand
            {
              OFFSET -22.5879 0.773209 7.07136
              CHANNELS 3 Zrotation Xrotation Yrotation
              JOINT rThumb1
              {
                OFFSET -1.2192 -0.487915 3.41376
                CHANNELS 3 Zrotation Xrotation Yrotation
                JOINT rThumb2
                {
                  OFFSET -3.37035 -0.52449 3.41376
                  CHANNELS 3 Zrotation Xrotation Yrotation
                  End Site
                  {
                    OFFSET -1.78271 -1.18214 1.43049
                  }
                }
              }
              JOINT rIndex1
              {
                OFFSET -7.75947 0.938293 5.60832
                CHANNELS 3 Zrotation Xrotation Yrotation
                JOINT rIndex2
                {
                  OFFSET -2.54057 -0.884171 1.56538
                  CHANNELS 3 Zrotation Xrotation Yrotation
                  End Site
                  {
                    OFFSET -1.62519 -0.234802 1.16502
                  }
                }
              }
              JOINT rMid1
              {
                OFFSET -8.24714 1.18213 3.41376
                CHANNELS 3 Zrotation Xrotation Yrotation
                JOINT rMid2
                {
                  OFFSET -3.10165 -0.590103 1.0647
                  CHANNELS 3 Zrotation Xrotation Yrotation
                  End Site
                  {
                    OFFSET -2.48547 -0.328903 0.83742
                  }
                }
              }
              JOINT rRing1
              {
                OFFSET -8.82822 0.546677 1.51678
                CHANNELS 3 Zrotation Xrotation Yrotation
                JOINT rRing2
                {
                  OFFSET -2.60934 -0.819778 -0.0198488
                  CHANNELS 3 Zrotation Xrotation Yrotation
                  End Site
                  {
                    OFFSET -2.33842 -0.294052 0.168128
                  }
                }
              }
              JOINT rPinky1
              {
                OFFSET -8.27202 -0.0477905 -0.4584
                CHANNELS 3 Zrotation Xrotation Yrotation
                JOINT rPinky2
                {
                  OFFSET -1.82734 -0.647385 -0.700984
                  CHANNELS 3 Zrotation Xrotation Yrotation
                  End Site
                  {
                    OFFSET -1.69225 -0.51767 -0.607171
                  }
                }
              }
            }
          }
        }
      }
      JOINT lCollar
      {
        OFFSET 2.68224 19.2634 -4.8768
        CHANNELS 3 Zrotation Xrotation Yrotation
        JOINT lShldr
        {
          OFFSET 8.77824 -1.95073 1.46304
          CHANNELS 3 Zrotation Xrotation Yrotation
          JOINT lForeArm
          {
            OFFSET 28.1742 -1.7115 0.48768
            CHANNELS 3 Zrotation Xrotation Yrotation
            JOINT lHand
            {
              OFFSET 22.5879 0.773209 7.07136
              CHANNELS 3 Zrotation Xrotation Yrotation
              JOINT lThumb1
              {
                OFFSET 1.2192 -0.487915 3.41376
                CHANNELS 3 Zrotation Xrotation Yrotation
                JOINT lThumb2
                {
                  OFFSET 3.37035 -0.52449 3.41376
                  CHANNELS 3 Zrotation Xrotation Yrotation
                  End Site
                  {
                    OFFSET 1.78271 -1.18214 1.43049
                  }
                }
              }
              JOINT lIndex1
              {
                OFFSET 7.75947 0.938293 5.60832
                CHANNELS 3 Zrotation Xrotation Yrotation
                JOINT lIndex2
                {
                  OFFSET 2.54057 -0.884171 1.56538
                  CHANNELS 3 Zrotation Xrotation Yrotation
                  End Site
                  {
                    OFFSET 1.62519 -0.234802 1.16502
                  }
                }
              }
              JOINT lMid1
              {
                OFFSET 8.24714 1.18213 3.41376
                CHANNELS 3 Zrotation Xrotation Yrotation
                JOINT lMid2
                {
                  OFFSET 3.10165 -0.590103 1.0647
                  CHANNELS 3 Zrotation Xrotation Yrotation
                  End Site
                  {
                    OFFSET 2.48547 -0.328903 0.83742
                  }
                }
              }
              JOINT lRing1
              {
                OFFSET 8.82822 0.546677 1.51678
                CHANNELS 3 Zrotation Xrotation Yrotation
                JOINT lRing2
                {
                  OFFSET 2.60934 -0.819778 -0.0198488
                  CHANNELS 3 Zrotation Xrotation Yrotation
                  End Site
                  {
                    OFFSET 2.33842 -0.294052 0.168128
                  }
                }
              }
              JOINT lPinky1
              {
                OFFSET 8.27202 -0.0477905 -0.4584
                CHANNELS 3 Zrotation Xrotation Yrotation
                JOINT lPinky2
                {
                  OFFSET 1.82734 -0.647385 -0.700984
                  CHANNELS 3 Zrotation Xrotation Yrotation
                  End Site
                  {
                    OFFSET 1.69225 -0.51767 -0.607171
                  }
                }
              }
            }
          }
        }
      }
    }
  }
  JOINT rButtock
  {
    OFFSET -8.77824 4.35084 1.2192
    CHANNELS 3 Zrotation Xrotation Yrotation
    JOINT rThigh
    {
      OFFSET 0 -1.70687 -2.19456
      CHANNELS 3 Zrotation Xrotation Yrotation
      JOINT rShin
      {
        OFFSET 0 -36.8199 0.73152
        CHANNELS 3 Zrotation Xrotation Yrotation
        JOINT rFoot
        {
          OFFSET 0.73152 -45.1104 -5.12064
          CHANNELS 3 Zrotation Xrotation Yrotation
          End Site
          {
            OFFSET -1.1221 -3.69964 12.103
          }
        }
      }
    }
  }
  JOINT lButtock
  {
    OFFSET 8.77824 4.35084 1.2192
    CHANNELS 3 Zrotation Xrotation Yrotation
    JOINT lThigh
    {
      OFFSET 0 -1.70687 -2.19456
      CHANNELS 3 Zrotation Xrotation Yrotation
      JOINT lShin
      {
        OFFSET 0 -36.8199 0.73152
        CHANNELS 3 Zrotation Xrotation Yrotation
        JOINT lFoot
        {
          OFFSET -0.73152 -45.1104 -5.12064
          CHANNELS 3 Zrotation Xrotation Yrotation
          End Site
          {
            OFFSET 1.1221 -3.69964 12.103
          }
        }
      }
    }
  }
}
MOTION
Frames:	5
Frame Time:	0.00833333
-1.01675 83.2978 43.2767 -8.6548 -5.4938 21.5901 4.72198 6.67936 0.761044 0.00920125 -2.36777 0.448792 -4.27475 2.25419 -3.78133 6.20766 -20.6258 -5.43216 -0.0 0.0 0.0 -0.0 0.0 0.0 -1.13959e-13 -9.54106e-14 2.94251e-13 34.5978 1.24431 79.2947 -17.8394 -10.5151 33.6608 -1.57486 33.207 5.2782 8.21979e-10 -5.21255e-09 -1.36885e-09 1.38701e-09 -9.50712e-09 -2.38801e-09 8.21979e-10 -5.21255e-09 -1.36886e-09 7.73091 5.47488 0.417314 8.21977e-10 -5.21258e-09 -1.36884e-09 2.90554 0.965183 0.102902 8.21987e-10 -5.21254e-09 -1.36885e-09 10.2786 0.731801 0.0259123 8.2197e-10 -5.21257e-09 -1.36884e-09 2.22167 -0.733487 -0.20892 -1.14204e-13 -9.5424e-14 2.94052e-13 -45.4846 8.16585 -96.0368 6.9271 -2.47319 -12.1521 1.74604 34.7004 -5.58466 -1.33074e-09 -4.57727e-09 -3.42634e-09 -2.3922e-09 -7.47214e-09 -5.87115e-09 -1.33074e-09 -4.57727e-09 -3.42634e-09 -7.73091 5.47488 -0.417314 -1.33074e-09 -4.57727e-09 -3.42634e-09 -2.90554 0.965183 -0.102902 -1.33075e-09 -4.57727e-09 -3.42634e-09 -10.2786 0.731801 -0.0259123 -1.33073e-09 -4.57727e-09 -3.42634e-09 -2.22167 -0.733487 0.20892 -2.03217e-16 0.0 -3.88251e-19 -0.605112 -22.9087 25.7608 0.0289115 0.229084 0.351427 -3.78288 -0.696513 -23.8868 2.03217e-16 0.0 3.88251e-19 -4.92087 -18.1586 -59.7857 0.354669 17.4644 2.59407 63.3521 -37.6923 79.6874
-1.00343 83.2966 43.2735 -8.6419 -5.5159 21.5934 4.70647 6.68917 0.753658 0.0163835 -2.36423 0.448339 -4.25581 2.10306 -3.81222 6.11062 -20.4042 -5.51618 -0.0 0.0 0.0 -0.0 0.0 0.0 -1.34414e-13 -1.1298e-13 2.70525e-13 34.3793 1.27448 79.2993 -17.897 -10.5759 33.7907 -1.56638 33.1298 5.26267 8.80018e-10 -1.01677e-09 -1.01031e-09 1.49601e-09 -2.2016e-09 -1.77031e-09 8.80018e-10 -1.01677e-09 -1.01033e-09 7.73091 5.47488 0.417314 8.80016e-10 -1.0168e-09 -1.01031e-09 2.90554 0.965183 0.102902 8.80025e-10 -1.01677e-09 -1.01032e-09 10.2786 0.731801 0.0259123 8.8001e-10 -1.01679e-09 -1.01031e-09 2.22167 -0.733487 -0.20892 -1.34619e-13 -1.12989e-13 2.7032e-13 -44.8851 8.07687 -96.0559 6.98784 -2.50262 -12.2616 1.69053 34.232 -5.48711 -9.7841e-10 -3.94714e-09 -2.73537e-09 -1.76379e-09 -6.47089e-09 -4.68692e-09 -9.78413e-10 -3.94714e-09 -2.73536e-09 -7.73091 5.47488 -0.417314 -9.78409e-10 -3.94714e-09 -2.73537e-09 -2.90554 0.965183 -0.102902 -9.78418e-10 -3.94714e-09 -2.73537e-09 -10.2786 0.731801 -0.0259123 -9.78402e-10 -3.94714e-09 -2.73537e-09 -2.22167 -0.733487 0.20892 -2.03217e-16 0.0 -3.88251e-19 -0.620324 -22.9127 25.7296 0.0289235 0.229922 0.35217 -3.77069 -0.685693 -23.8335 2.03217e-16 0.0 3.88251e-19 -4.94321 -18.1458 -59.7772 0.354639 17.4734 2.59688 63.4203 -37.7666 79.7067
-0.981485 83.2948 43.2723 -8.5836 -5.5535 21.5916 4.66805 6.69727 0.746594 0.034079 -2.35589 0.449152 -4.27985 1.92189 -3.86922 6.08386 -20.1449 -5.62885 -0.0 0.0 0.0 -0.0 0.0 0.0 -1.35047e-13 -5.82434e-14 2.17337e-13 34.1444 1.276 79.3331 -17.9463 -10.628 33.903 -1.55351 33.0118 5.239 5.20425e-10 -2.40442e-09 -8.31594e-10 8.78009e-10 -4.4613e-09 -1.44949e-09 5.20428e-10 -2.40441e-09 -8.31602e-10 7.73091 5.47488 0.417314 5.20425e-10 -2.40443e-09 -8.31591e-10 2.90554 0.965183 0.102902 5.20433e-10 -2.40441e-09 -8.31596e-10 10.2786 0.731801 0.0259123 5.20423e-10 -2.40443e-09 -8.31588e-10 2.22167 -0.733487 -0.20892 -1.35181e-13 -5.82451e-14 2.17123e-13 -44.1964 7.99253 -96.0838 7.06452 -2.53986 -12.4001 1.62993 33.706 -5.37898 7.20223e-10 -5.73781e-09 -1.24022e-09 1.20978e-09 -9.81862e-09 -2.15261e-09 7.20216e-10 -5.7378e-09 -1.24021e-09 -7.73091 5.47488 -0.417314 7.20223e-10 -5.73781e-09 -1.24022e-09 -2.90554 0.965183 -0.102902 7.20214e-10 -5.7378e-09 -1.24021e-09 -10.2786 0.731801 -0.0259123 7.20231e-10 -5.73781e-09 -1.24022e-09 -2.22167 -0.733487 0.20892 -2.03217e-16 0.0 -3.88251e-19 -0.6624 -22.9127 25.6968 0.0290251 0.230937 0.353138 -3.76126 -0.68065 -23.7818 2.03217e-16 0.0 3.88251e-19 -4.99514 -18.1284 -59.7757 0.354827 17.4899 2.59754 63.489 -37.8602 79.716
-0.97275 83.2956 43.2745 -8.5731 -5.5772 21.5769 4.62317 6.70251 0.737283 0.0558042 -2.34647 0.449344 -4.3231 1.76248 -3.92627 6.09761 -19.9154 -5.72968 -0.0 0.0 0.0 -0.0 0.0 0.0 -1.18412e-13 1.52787e-14 1.61072e-13 33.9964 1.29336 79.3426 -18.0099 -10.6962 34.0454 -1.54467 32.9305 5.22271 3.50508e-11 -6.05525e-09 -7.66584e-10 3.97261e-11 -1.06183e-08 -1.32121e-09 3.50563e-11 -6.05524e-09 -7.6659e-10 7.73091 5.47488 0.417314 3.50522e-11 -6.05526e-09 -7.66581e-10 2.90554 0.965183 0.102902 3.50601e-11 -6.05524e-09 -7.66585e-10 10.2786 0.731801 0.0259123 3.50531e-11 -6.05525e-09 -7.66577e-10 2.22167 -0.733487 -0.20892 -1.18474e-13 1.52842e-14 1.60844e-13 -43.546 7.91447 -96.1126 7.13945 -2.57631 -12.5357 1.57301 33.1949 -5.27547 2.57102e-09 -7.99267e-09 2.71263e-10 4.4462e-09 -1.39819e-08 4.04988e-10 2.57101e-09 -7.99266e-09 2.71281e-10 -7.73091 5.47488 -0.417314 2.57102e-09 -7.99268e-09 2.7127e-10 -2.90554 0.965183 -0.102902 2.57101e-09 -7.99266e-09 2.71274e-10 -10.2786 0.731801 -0.0259123 2.57103e-09 -7.99267e-09 2.7126e-10 -2.22167 -0.733487 0.20892 -2.03217e-16 0.0 -3.88251e-19 -0.712493 -22.9127 25.6657 0.0291729 0.231969 0.353914 -3.75493 -0.67937 -23.7399 2.03217e-16 0.0 3.88251e-19 -5.05443 -18.1121 -59.7816 0.35509 17.5074 2.59785 63.553 -37.9468 79.7245
-0.96744 83.2966 43.2729 -8.5715 -5.59 21.5785 4.58828 6.70374 0.723159 0.0750763 -2.33966 0.447025 -4.36133 1.6766 -3.9573 6.12098 -19.7826 -5.77845 -0.0 0.0 0.0 -0.0 0.0 0.0 -8.706e-14 5.40648e-14 1.28117e-13 34.0386 1.37155 79.2746 -18.1093 -10.8047 34.2658 -1.54811 32.9632 5.22919 -2.84256e-10 -8.64904e-09 -7.49183e-10 -5.12104e-10 -1.50045e-08 -1.28109e-09 -2.84249e-10 -8.64904e-09 -7.49186e-10 7.73091 5.47488 0.417314 -2.84253e-10 -8.64905e-09 -7.4918e-10 2.90554 0.965183 0.102902 -2.84246e-10 -8.64904e-09 -7.49183e-10 10.2786 0.731801 0.0259123 -2.84251e-10 -8.64904e-09 -7.49173e-10 2.22167 -0.733487 -0.20892 -8.70812e-14 5.40741e-14 1.27868e-13 -43.0612 7.84452 -96.1346 7.19513 -2.60344 -12.6366 1.52729 32.7714 -5.19082 3.37983e-09 -8.75514e-09 1.01124e-09 5.86313e-09 -1.54274e-08 1.65913e-09 3.37982e-09 -8.75512e-09 1.01126e-09 -7.73091 5.47488 -0.417314 3.37983e-09 -8.75515e-09 1.01125e-09 -2.90554 0.965183 -0.102902 3.37982e-09 -8.75512e-09 1.01126e-09 -10.2786 0.731801 -0.0259123 3.37984e-09 -8.75514e-09 1.01124e-09 -2.22167 -0.733487 0.20892 -2.03217e-16 0.0 -3.88251e-19 -0.751758 -22.9164 25.64 0.0293231 0.232861 0.354083 -3.75205 -0.679836 -23.7157 2.03217e-16 0.0 3.88251e-19 -5.09887 -18.1023 -59.7953 0.35528 17.5199 2.59963 63.607 -37.9997 79.7417
